<svg id="Layer_1" data-name="Layer 1" xmlns="http://www.w3.org/2000/svg" viewBox="0 0 768 1366"><defs><style>.cls-1{fill:#5ec1e6;}.cls-2{fill:#4a4f58;}.cls-3{fill:#fdad47;}</style></defs><title>Artboard 1</title><path class="cls-1" d="M768.19,618.36s-194.31-43.56-265.59-144-13-199.8-13-199.8,266.76-216,284-241.92,32.4-37.8,32.4-37.8Z"/><path class="cls-2" d="M-168.8,269.88C-153,291.48-32,490.2-32,490.2S184,714.84,372.64,618.36,474.88,429.72,512.32,313.08,824.8,28.2,827.68,0s-388.8-114.6-388.8-114.6L-125.6-71.4Z"/><path class="cls-3" d="M-112.64,278.52c45.36,15.12,81.36,28.8,81.36,28.8l30.56,5.76s69.52-13,121.36-129.6S335.92,47.4,335.92,47.4s196.56-28.8,201.6-70.56L-23.36-14.52Z"/></svg>